<?xml version="1.0" standalone="no"?>
<!DOCTYPE svg PUBLIC "-//W3C//DTD SVG 20010904//EN"
 "http://www.w3.org/TR/2001/REC-SVG-20010904/DTD/svg10.dtd">
<svg version="1.0" xmlns="http://www.w3.org/2000/svg"
 width="256.000000pt" height="256.000000pt" viewBox="0 0 256.000000 256.000000"
 preserveAspectRatio="xMidYMid meet">

<g transform="translate(0.000000,256.000000) scale(0.100000,-0.100000)"
fill="#000000" stroke="none">
<path d="M1475 2140 c-10 -16 -294 -738 -301 -764 l-6 -26 514 0 514 0 51 53
c58 59 83 103 83 144 0 57 -60 114 -155 149 -72 25 -284 31 -396 10 -80 -15
-84 -15 -103 3 -26 27 -36 97 -30 221 l5 105 -85 57 c-47 31 -88 53 -91 48z"/>
<path d="M504 1770 c-32 -13 -72 -67 -80 -106 -9 -48 19 -118 58 -146 23 -16
45 -21 91 -21 57 0 62 1 98 41 36 38 39 46 39 100 0 66 -19 101 -70 127 -31
16 -102 19 -136 5z"/>
<path d="M401 1466 c-7 -8 -39 -90 -71 -183 -32 -92 -66 -188 -74 -212 -9 -24
-16 -57 -16 -73 0 -44 25 -95 52 -104 12 -4 75 -24 138 -44 l115 -35 7 -174
c9 -216 24 -262 77 -225 30 21 40 70 51 258 13 209 14 207 -110 270 -49 26
-90 50 -90 55 0 13 70 231 75 231 2 0 18 -20 36 -45 28 -38 39 -45 83 -54 136
-26 196 -22 196 13 0 20 -21 34 -106 71 l-77 34 -56 92 -56 93 -69 23 c-82 27
-90 28 -105 9z"/>
<path d="M1072 1418 c-22 -18 -45 -41 -51 -50 -10 -16 -6 -18 47 -18 l58 0 16
50 16 50 -23 0 c-12 0 -41 -15 -63 -32z"/>
<path d="M705 1314 c21 -30 47 -49 99 -72 80 -36 107 -39 127 -16 21 26 -18
49 -108 63 -55 9 -88 21 -113 39 l-34 26 29 -40z"/>
<path d="M984 1273 c18 -116 18 -123 3 -146 -16 -24 -39 -36 -114 -56 -48 -13
-57 -30 -51 -97 l3 -39 124 -7 c179 -10 171 3 171 -254 0 -219 6 -254 43 -254
44 0 47 12 47 220 0 190 1 198 25 246 14 27 25 55 25 62 0 6 9 12 20 12 15 0
22 8 26 29 10 50 31 53 372 59 l312 5 0 -42 c0 -34 3 -41 20 -41 16 0 20 -7
20 -34 0 -30 2 -33 25 -28 l25 4 0 -179 c0 -99 3 -208 6 -242 6 -54 10 -62 31
-67 50 -13 52 0 55 250 2 178 6 230 16 229 8 -2 12 9 12 32 0 32 2 35 30 35
28 0 30 2 30 40 l0 40 45 0 45 0 0 130 0 130 -686 0 -686 0 6 -37z"/>
<path d="M669 940 c23 -17 46 -42 51 -55 5 -14 7 -81 3 -152 -6 -125 -5 -130
21 -186 31 -65 55 -84 87 -66 20 10 21 17 17 78 -6 74 -82 347 -104 372 -14
15 -77 39 -104 39 -7 0 6 -14 29 -30z"/>
<path d="M227 842 c-10 -10 -17 -22 -17 -25 0 -4 48 -7 108 -6 l107 0 -90 24
c-49 14 -90 25 -91 25 0 0 -8 -8 -17 -18z"/>
<path d="M210 636 c0 -151 4 -176 25 -176 16 0 21 21 35 150 15 146 12 140 74
140 l53 0 12 -92 c6 -51 14 -114 17 -140 5 -42 18 -67 29 -57 2 2 6 75 10 162
l8 157 -132 0 -131 0 0 -144z"/>
</g>
</svg>
