<?xml version="1.0" standalone="no"?>
<!DOCTYPE svg PUBLIC "-//W3C//DTD SVG 20010904//EN"
 "http://www.w3.org/TR/2001/REC-SVG-20010904/DTD/svg10.dtd">
<svg version="1.0" xmlns="http://www.w3.org/2000/svg"
 width="256.000000pt" height="256.000000pt" viewBox="0 0 256.000000 256.000000"
 preserveAspectRatio="xMidYMid meet">

<g transform="translate(0.000000,256.000000) scale(0.100000,-0.100000)"
fill="#000000" stroke="none">
<path d="M1175 2458 c-33 -18 -86 -71 -102 -102 -18 -35 -42 -163 -43 -229 0
-61 69 -247 156 -417 60 -117 64 -129 64 -193 0 -37 -7 -83 -14 -102 -14 -34
-17 -35 -68 -35 -77 0 -218 -19 -290 -39 -53 -14 -62 -20 -60 -36 5 -24 20
-35 48 -35 15 0 24 -8 28 -26 5 -17 20 -31 49 -44 23 -11 35 -20 26 -20 -9 0
-33 11 -53 25 -42 28 -59 24 -95 -21 -26 -33 -26 -54 -1 -87 22 -28 187 -162
358 -291 82 -62 102 -81 95 -94 -4 -10 -8 -99 -8 -199 -1 -157 -3 -185 -18
-201 -23 -25 -21 -39 8 -74 21 -25 25 -40 25 -93 0 -57 11 -87 27 -72 13 14
24 92 27 197 7 203 34 381 81 530 61 196 60 187 28 203 -16 8 -42 12 -60 10
-18 -3 -45 -1 -61 5 l-29 10 -7 -60 c-3 -34 -6 -83 -6 -109 0 -27 -4 -49 -9
-49 -4 0 -18 22 -29 50 -21 50 -26 53 -72 51 -21 -2 -39 15 -100 91 -88 109
-88 108 -61 108 l21 0 -20 35 c-11 19 -15 35 -10 35 5 0 12 -11 16 -25 8 -32
40 -55 77 -55 15 0 39 -7 52 -16 15 -10 41 -15 68 -13 33 2 52 -3 78 -22 25
-18 47 -24 84 -24 28 0 60 -6 73 -13 12 -7 51 -13 85 -12 34 1 83 -2 108 -5
35 -5 48 -3 58 9 23 27 -31 118 -128 219 l-85 89 -4 69 c-3 55 1 87 23 156 15
48 28 99 30 113 1 14 6 52 10 85 4 33 29 114 56 183 43 108 49 131 49 195 -1
87 -22 213 -43 253 -18 35 -74 90 -83 81 -3 -3 -1 -20 5 -38 13 -38 10 -44
-18 -29 -36 18 -23 3 24 -31 60 -43 69 -75 60 -203 -5 -74 -13 -112 -30 -146
-12 -25 -26 -56 -30 -69 -4 -13 -29 -46 -56 -73 -41 -41 -52 -47 -68 -38 -30
16 -35 46 -12 79 26 36 36 101 23 140 -16 47 -64 101 -88 101 -16 0 -29 -14
-49 -52 -23 -43 -26 -61 -23 -110 3 -42 10 -64 26 -81 12 -13 22 -30 22 -39 0
-21 -26 -42 -44 -35 -22 9 -89 103 -137 191 l-43 80 0 118 c-1 131 1 137 69
162 30 11 34 15 17 15 -23 1 -23 1 8 41 32 41 31 48 -5 28z"/>
</g>
</svg>
