<?xml version="1.0" standalone="no"?>
<!DOCTYPE svg PUBLIC "-//W3C//DTD SVG 20010904//EN"
 "http://www.w3.org/TR/2001/REC-SVG-20010904/DTD/svg10.dtd">
<svg version="1.0" xmlns="http://www.w3.org/2000/svg"
 width="256.000000pt" height="256.000000pt" viewBox="0 0 256.000000 256.000000"
 preserveAspectRatio="xMidYMid meet">

<g transform="translate(0.000000,256.000000) scale(0.100000,-0.100000)"
fill="#000000" stroke="none">
<path d="M797 2060 c-113 -29 -211 -109 -264 -218 -37 -75 -38 -78 -38 -192 1
-104 4 -124 35 -214 74 -218 243 -446 602 -811 l147 -150 92 92 92 91 -36 42
c-59 69 -80 124 -85 220 -3 71 0 95 19 145 31 83 121 173 204 205 107 41 232
27 327 -35 l38 -25 50 102 c69 142 93 244 88 368 -3 84 -8 105 -36 162 -84
171 -284 262 -472 214 -91 -23 -162 -75 -223 -163 -28 -40 -54 -73 -58 -73 -4
0 -18 19 -32 43 -45 76 -105 135 -172 168 -55 27 -78 32 -152 35 -49 2 -105
-1 -126 -6z"/>
<path d="M1610 1251 c-95 -31 -169 -94 -209 -180 -38 -82 -37 -193 2 -273 129
-263 514 -234 598 45 48 157 -27 322 -176 388 -54 24 -171 35 -215 20z m197
-89 c124 -64 174 -220 108 -341 -108 -198 -398 -169 -461 47 -39 133 36 267
176 313 40 13 133 3 177 -19z"/>
<path d="M1680 1045 l0 -85 -77 0 c-137 0 -143 -37 -8 -42 l80 -3 5 -83 c3
-45 10 -82 15 -82 6 0 11 37 13 85 l3 85 84 0 c51 0 87 4 91 11 12 20 -19 29
-98 29 l-78 0 0 85 c0 69 -3 85 -15 85 -12 0 -15 -16 -15 -85z"/>
</g>
</svg>
