<?xml version="1.0" standalone="no"?>
<!DOCTYPE svg PUBLIC "-//W3C//DTD SVG 20010904//EN"
 "http://www.w3.org/TR/2001/REC-SVG-20010904/DTD/svg10.dtd">
<svg version="1.0" xmlns="http://www.w3.org/2000/svg"
 width="256.000000pt" height="256.000000pt" viewBox="0 0 256.000000 256.000000"
 preserveAspectRatio="xMidYMid meet">

<g transform="translate(0.000000,256.000000) scale(0.100000,-0.100000)"
fill="#000000" stroke="none">
<path d="M400 2122 c0 -47 38 -146 121 -310 133 -268 186 -352 223 -352 7 0
34 14 59 31 67 44 64 59 -37 187 -45 59 -131 177 -189 262 -142 210 -177 245
-177 182z"/>
<path d="M1774 1779 c-174 -20 -474 -152 -663 -289 l-43 -32 20 -21 c11 -12
25 -32 31 -44 6 -13 24 -26 39 -29 71 -17 133 -67 178 -143 16 -28 23 -31 65
-31 26 0 125 20 220 45 96 24 175 42 178 39 6 -6 -181 -198 -244 -250 -140
-116 -337 -163 -472 -113 -94 36 -203 158 -203 229 0 11 -6 20 -14 20 -8 0
-29 14 -47 32 l-32 32 -75 -79 c-208 -221 -312 -459 -258 -590 61 -146 211
-193 403 -126 44 15 96 37 115 48 l33 19 49 -30 c47 -30 54 -31 150 -30 289 3
585 179 761 452 125 195 195 400 195 572 0 120 -19 185 -72 245 -59 67 -165
92 -314 74z m217 -169 c49 -27 -8 -110 -76 -110 -65 0 -73 63 -12 100 36 22
59 25 88 10z m27 -256 c28 -19 28 -44 1 -78 -44 -56 -122 -73 -160 -35 -62 62
84 166 159 113z m-120 -316 c6 -6 12 -25 12 -43 0 -25 -9 -41 -39 -68 -46 -42
-71 -51 -117 -43 -34 7 -54 30 -54 62 0 26 49 84 84 100 32 15 91 10 114 -8z
m-1039 -203 c33 -16 41 -33 41 -81 0 -122 -170 -239 -253 -174 -56 44 -38 142
38 209 67 59 122 73 174 46z m701 -50 c23 -12 30 -22 30 -46 0 -42 -14 -65
-62 -99 -50 -36 -107 -40 -155 -10 -41 25 -44 65 -8 108 49 58 134 79 195 47z"/>
<path d="M831 1442 c-46 -38 -44 -68 9 -137 68 -88 95 -93 163 -31 51 48 48
69 -20 138 -68 68 -99 75 -152 30z"/>
<path d="M1035 1228 c-69 -60 -74 -83 -31 -148 54 -81 146 -117 257 -99 73 11
187 62 239 107 l35 30 -52 -10 c-64 -13 -157 -2 -179 20 -9 9 -30 38 -46 64
-33 53 -65 75 -124 83 -36 5 -44 1 -99 -47z"/>
</g>
</svg>
