<?xml version="1.0" standalone="no"?>
<!DOCTYPE svg PUBLIC "-//W3C//DTD SVG 20010904//EN"
 "http://www.w3.org/TR/2001/REC-SVG-20010904/DTD/svg10.dtd">
<svg version="1.0" xmlns="http://www.w3.org/2000/svg"
 width="256.000000pt" height="256.000000pt" viewBox="0 0 256.000000 256.000000"
 preserveAspectRatio="xMidYMid meet">

<g transform="translate(0.000000,256.000000) scale(0.100000,-0.100000)"
fill="#000000" stroke="none">
<path d="M1190 2123 c-275 -46 -523 -230 -649 -480 -40 -80 -78 -211 -86 -301
l-7 -70 -54 -7 c-58 -7 -87 -27 -82 -56 4 -24 269 -357 290 -364 38 -13 53 13
132 226 59 160 76 216 69 228 -8 12 -26 16 -67 16 l-56 0 7 40 c10 64 49 172
85 233 44 75 149 178 229 225 94 55 177 79 299 84 198 9 338 -45 481 -187 71
-70 94 -100 127 -170 53 -111 77 -227 68 -332 -22 -268 -194 -487 -447 -573
-111 -37 -277 -40 -379 -7 -84 28 -129 28 -171 -1 -62 -42 -79 -118 -35 -162
26 -26 148 -68 252 -86 94 -16 279 -6 374 21 306 87 547 337 622 648 47 195
21 410 -72 597 -122 247 -338 412 -613 470 -63 14 -255 18 -317 8z"/>
<path d="M1190 1794 c-151 -40 -293 -151 -355 -278 -41 -83 -57 -166 -32 -166
9 0 28 5 42 10 15 6 31 8 35 5 5 -3 -11 -64 -36 -135 -24 -71 -44 -135 -44
-143 0 -8 16 -45 35 -83 108 -215 336 -336 572 -303 323 45 538 351 472 671
-41 197 -208 370 -409 423 -69 19 -208 18 -280 -1z m209 -168 c8 -9 11 -83 9
-247 l-3 -234 -206 -3 c-179 -2 -208 0 -220 14 -9 11 -10 20 -2 32 9 14 35 18
174 22 l164 5 3 199 c1 127 6 204 13 213 15 17 53 17 68 -1z"/>
</g>
</svg>
