<?xml version="1.0" standalone="no"?>
<!DOCTYPE svg PUBLIC "-//W3C//DTD SVG 20010904//EN"
 "http://www.w3.org/TR/2001/REC-SVG-20010904/DTD/svg10.dtd">
<svg version="1.0" xmlns="http://www.w3.org/2000/svg"
 width="256.000000pt" height="256.000000pt" viewBox="0 0 256.000000 256.000000"
 preserveAspectRatio="xMidYMid meet">

<g transform="translate(0.000000,256.000000) scale(0.100000,-0.100000)"
fill="#000000" stroke="none">
<path d="M900 1904 c-474 -396 -550 -462 -550 -482 0 -22 54 -82 73 -82 14 0
104 74 681 558 93 78 172 142 176 142 4 0 182 -147 396 -326 494 -414 450
-381 481 -363 31 18 58 62 50 82 -6 15 -167 153 -641 550 -193 161 -266 217
-285 217 -19 0 -120 -79 -381 -296z"/>
<path d="M1208 1887 c-35 -29 -190 -160 -345 -290 l-283 -238 0 -399 c0 -387
1 -401 20 -420 19 -19 33 -20 245 -20 l225 0 2 382 3 383 205 0 205 0 3 -382
2 -383 225 0 c212 0 226 1 245 20 19 19 20 33 20 420 l0 399 -282 238 c-156
130 -311 261 -346 290 -35 29 -67 53 -72 53 -5 0 -37 -24 -72 -53z"/>
</g>
</svg>
