<?xml version="1.0" standalone="no"?>
<!DOCTYPE svg PUBLIC "-//W3C//DTD SVG 20010904//EN"
 "http://www.w3.org/TR/2001/REC-SVG-20010904/DTD/svg10.dtd">
<svg version="1.0" xmlns="http://www.w3.org/2000/svg"
 width="256.000000pt" height="256.000000pt" viewBox="0 0 256.000000 256.000000"
 preserveAspectRatio="xMidYMid meet">

<g transform="translate(0.000000,256.000000) scale(0.100000,-0.100000)"
fill="#000000" stroke="none">
<path d="M1081 2246 c-6 -7 -21 -108 -33 -224 l-22 -210 -38 -5 c-82 -11 -147
-83 -133 -147 19 -85 160 -78 214 10 13 23 23 76 35 208 10 97 19 183 22 190
6 19 47 -11 69 -51 12 -24 16 -45 12 -77 -3 -25 -7 -56 -9 -70 -5 -41 25 -30
50 20 41 81 23 164 -52 248 -19 20 -39 56 -45 80 -10 34 -16 42 -35 42 -13 0
-29 -6 -35 -14z"/>
<path d="M1475 2038 c-3 -18 -23 -186 -45 -373 -56 -477 -43 -422 -101 -427
-64 -7 -137 -52 -166 -103 -27 -47 -30 -120 -7 -153 37 -53 141 -69 213 -32
49 25 109 94 116 134 6 37 63 514 72 604 3 34 9 65 13 67 6 4 376 -189 393
-205 5 -4 -5 -123 -22 -264 -17 -141 -31 -261 -31 -265 0 -5 -23 -11 -51 -14
-108 -13 -189 -95 -189 -190 0 -140 189 -167 298 -43 17 20 36 53 41 73 6 21
33 231 61 467 40 340 48 431 38 438 -10 7 -591 303 -620 316 -4 2 -9 -12 -13
-30z"/>
<path d="M547 1639 c-9 -5 -24 -23 -32 -40 -15 -28 -12 -48 75 -430 51 -220
89 -407 86 -415 -3 -8 -12 -14 -21 -14 -32 0 -93 -40 -138 -90 -95 -106 -103
-235 -18 -314 40 -38 119 -47 187 -21 91 35 184 163 184 254 0 15 -36 186 -80
379 -44 193 -80 356 -80 362 0 14 27 6 99 -28 104 -51 160 -154 146 -271 -7
-64 5 -85 47 -79 37 5 52 51 53 158 0 84 -3 102 -29 157 -35 78 -118 159 -207
203 -94 48 -117 67 -144 120 -36 72 -81 96 -128 69z"/>
</g>
</svg>
