<?xml version="1.0" standalone="no"?>
<!DOCTYPE svg PUBLIC "-//W3C//DTD SVG 20010904//EN"
 "http://www.w3.org/TR/2001/REC-SVG-20010904/DTD/svg10.dtd">
<svg version="1.0" xmlns="http://www.w3.org/2000/svg"
 width="256.000000pt" height="256.000000pt" viewBox="0 0 256.000000 256.000000"
 preserveAspectRatio="xMidYMid meet">

<g transform="translate(0.000000,256.000000) scale(0.100000,-0.100000)"
fill="#000000" stroke="none">
<path d="M1096 1949 c-49 -16 -132 -37 -185 -46 -95 -16 -177 -13 -362 14 -31
4 -42 0 -70 -25 -34 -30 -34 -31 -32 -109 5 -142 33 -370 54 -440 70 -229 241
-410 406 -429 120 -15 246 78 331 243 81 157 96 278 71 584 -13 164 -22 195
-63 220 -39 24 -42 23 -150 -12z m52 -305 c28 -20 28 -55 0 -82 -56 -51 -180
-21 -164 41 12 50 114 76 164 41z m-363 -39 c31 -30 31 -40 1 -70 -43 -43
-124 -45 -161 -5 -60 66 96 139 160 75z m350 -342 c-16 -84 -149 -163 -252
-149 -80 11 -159 66 -182 129 -17 45 -13 49 27 22 104 -69 296 -51 380 35 31
31 38 21 27 -37z"/>
<path d="M1382 1648 c2 -19 16 -27 73 -46 161 -52 350 -64 503 -31 62 13 88 2
108 -46 12 -29 11 -55 -2 -187 -17 -179 -29 -254 -51 -323 -45 -145 -169 -305
-279 -360 -153 -78 -312 2 -411 206 -23 46 -47 108 -54 137 -13 53 -14 54 -30
33 -22 -26 -14 -61 42 -179 45 -98 144 -208 218 -243 71 -35 168 -33 246 5 87
42 199 159 251 261 70 135 84 198 108 461 16 169 14 193 -15 235 -31 44 -68
53 -146 38 -85 -17 -279 -17 -358 0 -33 7 -91 24 -130 37 -38 13 -71 24 -73
24 -2 0 -2 -10 0 -22z"/>
<path d="M1418 1319 c-29 -16 -22 -56 12 -74 55 -29 130 -9 130 35 0 41 -95
67 -142 39z"/>
<path d="M1771 1283 c-44 -36 -2 -83 74 -83 55 0 86 50 50 80 -27 23 -97 24
-124 3z"/>
<path d="M1550 1028 c-46 -13 -96 -52 -115 -88 -21 -40 -20 -40 28 -16 86 42
235 30 320 -28 32 -22 37 -23 37 -8 0 26 -35 77 -72 105 -56 43 -127 55 -198
35z"/>
</g>
</svg>
