<?xml version="1.0" standalone="no"?>
<!DOCTYPE svg PUBLIC "-//W3C//DTD SVG 20010904//EN"
 "http://www.w3.org/TR/2001/REC-SVG-20010904/DTD/svg10.dtd">
<svg version="1.0" xmlns="http://www.w3.org/2000/svg"
 width="256.000000pt" height="256.000000pt" viewBox="0 0 256.000000 256.000000"
 preserveAspectRatio="xMidYMid meet">

<g transform="translate(0.000000,256.000000) scale(0.100000,-0.100000)"
fill="#000000" stroke="none">
<path d="M300 2090 l0 -90 545 0 545 0 0 90 0 90 -545 0 -545 0 0 -90z"/>
<path d="M1560 1553 l0 -593 -75 0 c-213 0 -401 -155 -399 -330 2 -149 123
-238 310 -228 110 6 209 52 282 133 82 90 82 87 82 570 0 232 3 425 6 428 12
12 185 -86 239 -135 63 -58 113 -149 121 -223 4 -31 0 -76 -10 -119 -9 -38
-15 -71 -13 -73 9 -8 101 115 124 164 30 65 40 170 24 255 -33 171 -144 307
-382 469 -146 99 -228 169 -282 239 l-26 35 -1 -592z"/>
<path d="M300 1685 l0 -85 545 0 545 0 0 85 0 85 -545 0 -545 0 0 -85z"/>
<path d="M300 1280 l0 -90 545 0 545 0 0 90 0 90 -545 0 -545 0 0 -90z"/>
<path d="M300 870 l0 -90 300 0 300 0 0 90 0 90 -300 0 -300 0 0 -90z"/>
<path d="M300 465 l0 -85 300 0 300 0 0 85 0 85 -300 0 -300 0 0 -85z"/>
</g>
</svg>
