<svg width="80" height="80" xmlns="http://www.w3.org/2000/svg">
 <title/>

 <g>
  <title>background</title>
  <rect fill="none" id="canvas_background" height="402" width="582" y="-1" x="-1"/>
 </g>
 <g>
  <title>Layer 1</title>
  <path fill="#ffffff" stroke-width="0" id="svg_1" d="m40,5.4c-19.1,0 -34.6,15.5 -34.6,34.6c0,19.1 15.5,34.6 34.5,34.6s34.6,-15.5 34.7,-34.6c0,0 0,0 0,0c-0.1,-19.1 -15.5,-34.5 -34.6,-34.6zm0,66.2c-17.4,0 -31.6,-14.2 -31.6,-31.6c0,-17.4 14.2,-31.6 31.6,-31.6s31.5,14.2 31.6,31.6c0,0 0,0 0,0c-0.1,17.4 -14.2,31.5 -31.6,31.6z"/>
  <path fill="#ffffff" id="svg_2" d="m64.6,39.1c-9.6,-13.7 -28.4,-17.1 -42.1,-7.5c-2.9,2 -5.5,4.6 -7.5,7.5l-0.6,0.9l0.6,0.9c9.6,13.7 28.4,17.1 42.1,7.5c2.9,-2 5.5,-4.6 7.5,-7.5l0.6,-0.9l-0.6,-0.9zm-24.8,11.7c-8.5,0 -16.6,-4 -21.7,-10.8c9.1,-12 26.2,-14.4 38.2,-5.3c2,1.5 3.8,3.3 5.3,5.3c-5.2,6.8 -13.3,10.8 -21.8,10.8z"/>
  <path fill="#ffffff" id="svg_3" d="m40.1,31.2c-4.9,0 -8.8,3.9 -8.8,8.8s3.9,8.8 8.8,8.8s8.8,-3.9 8.8,-8.8c-0.1,-4.8 -4,-8.7 -8.8,-8.8zm0,14.7c-3.2,0 -5.8,-2.6 -5.8,-5.8s2.6,-5.8 5.8,-5.8c3.2,0 5.8,2.6 5.8,5.8c0,0 0,0 0,0c-0.1,3.2 -2.6,5.8 -5.8,5.8z"/>
  <circle fill="#ffffff" id="svg_4" r="3.3" cy="40" cx="40.1"/>
 </g>
</svg>